<svg id="Layer_1" data-name="Layer 1" xmlns="http://www.w3.org/2000/svg" viewBox="0 0 638 173.39">
    <defs>
        <style>.cls-1{fill:#0082c8;}</style>
    </defs>
    <title>Hoka Logo Vector</title>
    <path class="cls-1"
        d="M812.82,577.19a.61.61,0,0,1,.17.39c0,.25,0,.33-.59.33H812c-.42,0-.42,0-.64-.39l-2.43-4.19h-.62l-.5,4c0,.5,0,.53-.59.53h-.5c-.45,0-.56,0-.56-.36v-.25l1.26-10c0-.51,0-.53.58-.53h1.65a3.7,3.7,0,0,1,2.6.67,3.42,3.42,0,0,1,.09,4.92,3.3,3.3,0,0,1-1.82.87Zm-4.36-5.35h.75c1,0,1.51,0,1.9-.56a2.15,2.15,0,0,0,.51-1.39,1.58,1.58,0,0,0-.84-1.46,4.46,4.46,0,0,0-1.2-.17h-.7Zm1.23-8.83a9.31,9.31,0,1,0,9.31,9.31,9.31,9.31,0,0,0-9.31-9.31Zm0,17.39a8.08,8.08,0,1,1,8.08-8.08h0A8.08,8.08,0,0,1,809.69,580.4ZM547.37,487.47A84.16,84.16,0,0,1,535.48,494,87.75,87.75,0,0,1,521,497.73c-2.09.37-10.93,1.57-11,1.6-2.3.36-4.81.75-8,1.17-4,.56-8.76,1.26-15.13,2.27l-2,.33a111.56,111.56,0,0,0-27,6.77,96.71,96.71,0,0,0-10.07,4.39l-.5.28-3.41,1.93c-2.8,1.6-7.25,4.17-11.19,6.1a6.28,6.28,0,0,1-4.92.64,6.4,6.4,0,0,1-4.25-2.57c-2.8-3.36-5.85-7.52-7.67-10.1-1-1.4-1.79-2.46-2.26-3.16l-.37-.42a87.57,87.57,0,0,0-7.49-8.16,110.48,110.48,0,0,0-21.81-17.12l-1.65-1.12c-5.43-3.49-9.57-6.09-12.92-8.19L362.79,468s-7.66-4.76-9.42-6a86.67,86.67,0,0,1-11.69-9.31A83.05,83.05,0,0,1,333.49,442c-.34-.59.28-1.4.84-1.82a2.3,2.3,0,0,1,1.51-.39.88.88,0,0,1,.47.28c0,.17.5.59,1,1.2,1.59,1.93,4.89,5.93,7.24,8.39a76.52,76.52,0,0,0,14.35,10.63l.95.59c1.09.75,5.26,3,7,3.91,4.36,2.21,9.59,4.45,14.35,6.41s9.95,3.83,13.7,5.76l.64.3a115.37,115.37,0,0,1,16.11,10.55,158.37,158.37,0,0,0,16.14,9.76,18.69,18.69,0,0,0,10.74,2.29,151.25,151.25,0,0,0,18.73-2.38,119.66,119.66,0,0,1,19-3.07h.7a138.3,138.3,0,0,1,14.88.33,144.51,144.51,0,0,0,15.72,0,77.2,77.2,0,0,0,8-.72l1.12-.14a76,76,0,0,0,17.5-3.89c3.14-1.23,7.78-3.58,10-4.7l1.4-.7a.8.8,0,0,1,.53,0,2.14,2.14,0,0,1,1.23,1c.34.45.56,1.51.09,1.9ZM789.1,577.58,760.61,420.69a5.6,5.6,0,0,0-5.6-4.59H717c-6.82,0-7.47.17-9.68,4l-1.17,2.27-70.28,123-28-44L667.62,428a12.71,12.71,0,0,0,3.69-7.44c0-3.3-1.68-4.42-9-4.42H630.85c-4.73,0-5.18.28-9.06,5l-55.35,67.93,11.44-63.15a24.82,24.82,0,0,0,.78-4.53c.25-4.31-1.7-5.29-8.92-5.29H544.29c-8.39,0-8.86.23-10.35,8.39l-10.37,57.75c-3.52-41.81-34.93-68.93-82.22-68.93-35.63,0-65.38,15.29-82.81,40.18,1,.67,2.07,1.35,3.19,2l1.09.67c.73.47,4.5,2.6,6.43,3.58,4.17,2.09,9.21,4.36,14,6.18l.33.14a150.08,150.08,0,0,1,14,5.84l.56.28h.16a50.37,50.37,0,0,1,39.38-17.67c22.68,0,38.34,13.25,41.3,34.06,3.86,0,8.23.14,12.81.36h.42c4.95.23,10.46.23,15.16,0a64.58,64.58,0,0,0,7.33-.64l1.25-.17a67.51,67.51,0,0,0,16.14-3.55c2.8-1.15,7.41-3.41,9.57-4.47l1-.51.28-.14.51-.25a6.5,6.5,0,0,1,3.8-.33,7.68,7.68,0,0,1,5,3.72,6.91,6.91,0,0,1-1.65,9.31,88.79,88.79,0,0,1-13.09,7.16,95,95,0,0,1-15.46,4c-1.49.26-5.6.84-9.82,1.43l-1.31.17c-2.27.39-4.84.75-8.09,1.23-3.77.53-8.53,1.2-15,2.21l-1.9.33c-3.33.59-6,1-8.22,1.43-5.59,21.34-23.88,35.29-47.77,35.29-27.09,0-44.24-18-42.67-44.6a53,53,0,0,1,1.4-9.29c-2-1.4-4.45-3-7.61-5.09l-1.65-1.12c-5.43-3.52-9.51-6.09-12.78-8.13-2.8-1.71-5-3.11-6.88-4.39l-1.17-.54c-3.61-2.23-7.11-4.44-8.39-5.28a94.22,94.22,0,0,1-12.5-10,89.18,89.18,0,0,1-9-11.83,6.93,6.93,0,0,1,2.27-9.23,7.8,7.8,0,0,1,6-1.4,6.51,6.51,0,0,1,3.52,1.93,2.74,2.74,0,0,1,.39.45l.17.22.73.87c1.51,1.84,4.7,5.59,6.88,7.94a46.87,46.87,0,0,0,5.59,4.84L358.6,426l.64-4.56c.51-4.14-1.7-5.29-9-5.29H324.06c-8.39,0-8.86.23-10.35,8.39l-9.39,52.72H244L253.28,426a25.29,25.29,0,0,0,.78-4.56c.26-4.31-1.7-5.29-9-5.29h-26c-8.39,0-8.86.23-10.35,8.39L181.55,574.22l-.53,4.53c-.23,4.31,1.7,5.15,8.78,5.15h26c8.39,0,8.86,0,10.35-8.17l11.18-61.38h60.3l-10.8,59.87a22.49,22.49,0,0,0-.78,4.53c-.23,4.31,2.46,5.15,9.79,5.15H321c8.39,0,8.89,0,10.37-8.17l10.74-59.29c3.92,42.29,37,70.25,85.94,70.25,31.46,0,57.13-11.74,74.42-33.72a98.35,98.35,0,0,0,12-20.19L507,574.22l-.5,4.53c-.5,4.31,1.42,5.15,8.39,5.15h25.34c8.38,0,8.89,0,10.37-8.17l12.14-66.92a221.41,221.41,0,0,0,11.35,21.7l29.28,48.24c3.08,4.92,3.44,5.18,8.25,5.15h44.41c7.08,0,7.61.17,9.93-4.14l1.2-2.27,12.67-24h59.06l3.61,26.37a4.68,4.68,0,0,0,4.62,4h36.6a5.37,5.37,0,0,0,5.37-5.37,5,5,0,0,0-.08-.95Zm-90.72-57.67,26.79-53.47,7.3,53.47Z"
        transform="translate(-181 -413.31)" />
</svg>